<svg xmlns="http://www.w3.org/2000/svg" viewBox="0 0 10 10"><defs><style>.cls-1{fill:none;}.cls-2{fill:#fff;}</style></defs><g id="Layer_2" data-name="Layer 2"><g id="Layer_1-2" data-name="Layer 1"><rect class="cls-1" width="10" height="10"/><path class="cls-2" d="M5.73.32h.79A3,3,0,0,1,9.33,2.42,8,8,0,0,1,8.05,8.29a3.79,3.79,0,0,1-5.45.43,8,8,0,0,1-2-4.48A1,1,0,0,1,.59,4V3.58a1.45,1.45,0,0,1,.17-.7C1.68,1.19,3.73.54,5.55.33ZM2.66,4.61c.68.34,1.44.51,2.08.9a19.1,19.1,0,0,1,.91,2.07C6.37,6,7,4.33,7.6,2.69,6,3.35,4.31,4,2.66,4.61Z"/></g></g></svg>