<svg width="98" height="42" viewBox="0 0 98 42" fill="none" xmlns="http://www.w3.org/2000/svg">
<path d="M2.85714 8.20101H0V16H20V8.20101H17.1429V13.164H2.85714V8.20101Z" fill="#69C200"/>
<path fill-rule="evenodd" clip-rule="evenodd" d="M10 3.62372L1.71504 10.3755L0 8.15349L9.97815 0.0218588L9.99502 0L10 0.00405464L10.005 0L10.0218 0.0218588L20 8.15349L18.285 10.3755L10 3.62372Z" fill="#69C200"/>
<path d="M32.9917 15.8225H25.3333V2.85292H32.9917V5.10619H28.1529V7.95383H32.6552V10.2071H28.1529V13.5515H32.9917V15.8225Z" fill="#263238"/>
<path d="M43.6244 12.2209C43.6244 13.3918 43.1908 14.3144 42.3237 14.9886C41.4627 15.6629 40.2621 16 38.7219 16C37.303 16 36.0478 15.7397 34.9564 15.2193V12.6644C35.8538 13.0547 36.6117 13.3297 37.2302 13.4894C37.8548 13.6491 38.4248 13.7289 38.9402 13.7289C39.5587 13.7289 40.0316 13.6136 40.3591 13.383C40.6926 13.1523 40.8593 12.8093 40.8593 12.3539C40.8593 12.0996 40.7866 11.8749 40.641 11.6797C40.4955 11.4786 40.2803 11.2864 39.9953 11.1031C39.7163 10.9197 39.1433 10.627 38.2762 10.2248C37.4637 9.85225 36.8543 9.49445 36.448 9.15143C36.0418 8.80842 35.7173 8.40921 35.4748 7.95383C35.2323 7.49844 35.111 6.96618 35.111 6.35702C35.111 5.20969 35.5081 4.30779 36.3025 3.65132C37.1029 2.99486 38.2065 2.66663 39.6133 2.66663C40.3045 2.66663 40.9624 2.74647 41.587 2.90615C42.2176 3.06583 42.8755 3.29056 43.5607 3.58035L42.6511 5.7183C41.9417 5.43442 41.3535 5.2363 40.8866 5.12393C40.4258 5.01157 39.971 4.95538 39.5223 4.95538C38.9887 4.95538 38.5794 5.07662 38.2944 5.3191C38.0094 5.56158 37.8669 5.87798 37.8669 6.26831C37.8669 6.51079 37.9245 6.7237 38.0397 6.90703C38.1549 7.08446 38.3369 7.25892 38.5855 7.43043C38.8401 7.59603 39.4374 7.89765 40.3773 8.33529C41.6203 8.91487 42.4723 9.49741 42.9331 10.0829C43.3939 10.6625 43.6244 11.3751 43.6244 12.2209Z" fill="#263238"/>
<path d="M51.1645 15.8225H48.3449V5.14168H44.734V2.85292H54.7755V5.14168H51.1645V15.8225Z" fill="#263238"/>
<path d="M64.9624 15.8225L63.9983 12.7354H59.1504L58.1863 15.8225H55.1484L59.8416 2.79969H63.2888L68.0003 15.8225H64.9624ZM63.3252 10.4289C62.4339 7.63151 61.9306 6.04949 61.8154 5.68282C61.7062 5.31614 61.6274 5.02635 61.5789 4.81344C61.3788 5.57045 60.8058 7.44226 59.8598 10.4289H63.3252Z" fill="#263238"/>
<path d="M74.8128 15.8225H71.9932V5.14168H68.3823V2.85292H78.4238V5.14168H74.8128V15.8225Z" fill="#263238"/>
<path d="M80.4702 15.8225V2.85292H83.2899V15.8225H80.4702Z" fill="#263238"/>
<path d="M97.3333 15.8225H94.1317L90.6481 10.3579L89.4566 11.1918V15.8225H86.637V2.85292H89.4566V8.78772L90.5663 7.26188L94.1681 2.85292H97.2969L92.6582 8.59255L97.3333 15.8225Z" fill="#263238"/>
<path d="M30.7832 33.7051L33.2969 26.4688H34.5215L31.3633 35H30.4902L30.7832 33.7051ZM28.4336 26.4688L30.9238 33.7051L31.2344 35H30.3613L27.209 26.4688H28.4336ZM37.8789 35.1172C37.4375 35.1172 37.0371 35.043 36.6777 34.8945C36.3223 34.7422 36.0156 34.5293 35.7578 34.2559C35.5039 33.9824 35.3086 33.6582 35.1719 33.2832C35.0352 32.9082 34.9668 32.498 34.9668 32.0527V31.8066C34.9668 31.291 35.043 30.832 35.1953 30.4297C35.3477 30.0234 35.5547 29.6797 35.8164 29.3984C36.0781 29.1172 36.375 28.9043 36.707 28.7598C37.0391 28.6152 37.3828 28.543 37.7383 28.543C38.1914 28.543 38.582 28.6211 38.9102 28.7773C39.2422 28.9336 39.5137 29.1523 39.7246 29.4336C39.9355 29.7109 40.0918 30.0391 40.1934 30.418C40.2949 30.793 40.3457 31.2031 40.3457 31.6484V32.1348H35.6113V31.25H39.2617V31.168C39.2461 30.8867 39.1875 30.6133 39.0859 30.3477C38.9883 30.082 38.832 29.8633 38.6172 29.6914C38.4023 29.5195 38.1094 29.4336 37.7383 29.4336C37.4922 29.4336 37.2656 29.4863 37.0586 29.5918C36.8516 29.6934 36.6738 29.8457 36.5254 30.0488C36.377 30.252 36.2617 30.5 36.1797 30.793C36.0977 31.0859 36.0566 31.4238 36.0566 31.8066V32.0527C36.0566 32.3535 36.0977 32.6367 36.1797 32.9023C36.2656 33.1641 36.3887 33.3945 36.5488 33.5938C36.7129 33.793 36.9102 33.9492 37.1406 34.0625C37.375 34.1758 37.6406 34.2324 37.9375 34.2324C38.3203 34.2324 38.6445 34.1543 38.9102 33.998C39.1758 33.8418 39.4082 33.6328 39.6074 33.3711L40.2637 33.8926C40.127 34.0996 39.9531 34.2969 39.7422 34.4844C39.5312 34.6719 39.2715 34.8242 38.9629 34.9414C38.6582 35.0586 38.2969 35.1172 37.8789 35.1172ZM42.6953 29.6562V35H41.6113V28.6602H42.666L42.6953 29.6562ZM44.6758 28.625L44.6699 29.6328C44.5801 29.6133 44.4941 29.6016 44.4121 29.5977C44.334 29.5898 44.2441 29.5859 44.1426 29.5859C43.8926 29.5859 43.6719 29.625 43.4805 29.7031C43.2891 29.7812 43.127 29.8906 42.9941 30.0312C42.8613 30.1719 42.7559 30.3398 42.6777 30.5352C42.6035 30.7266 42.5547 30.9375 42.5312 31.168L42.2266 31.3438C42.2266 30.9609 42.2637 30.6016 42.3379 30.2656C42.416 29.9297 42.5352 29.6328 42.6953 29.375C42.8555 29.1133 43.0586 28.9102 43.3047 28.7656C43.5547 28.6172 43.8516 28.543 44.1953 28.543C44.2734 28.543 44.3633 28.5527 44.4648 28.5723C44.5664 28.5879 44.6367 28.6055 44.6758 28.625ZM49.3691 33.3184C49.3691 33.1621 49.334 33.0176 49.2637 32.8848C49.1973 32.748 49.0586 32.625 48.8477 32.5156C48.6406 32.4023 48.3281 32.3047 47.9102 32.2227C47.5586 32.1484 47.2402 32.0605 46.9551 31.959C46.6738 31.8574 46.4336 31.7344 46.2344 31.5898C46.0391 31.4453 45.8887 31.2754 45.7832 31.0801C45.6777 30.8848 45.625 30.6562 45.625 30.3945C45.625 30.1445 45.6797 29.9082 45.7891 29.6855C45.9023 29.4629 46.0605 29.2656 46.2637 29.0938C46.4707 28.9219 46.7188 28.7871 47.0078 28.6895C47.2969 28.5918 47.6191 28.543 47.9746 28.543C48.4824 28.543 48.916 28.6328 49.2754 28.8125C49.6348 28.9922 49.9102 29.2324 50.1016 29.5332C50.293 29.8301 50.3887 30.1602 50.3887 30.5234H49.3047C49.3047 30.3477 49.252 30.1777 49.1465 30.0137C49.0449 29.8457 48.8945 29.707 48.6953 29.5977C48.5 29.4883 48.2598 29.4336 47.9746 29.4336C47.6738 29.4336 47.4297 29.4805 47.2422 29.5742C47.0586 29.6641 46.9238 29.7793 46.8379 29.9199C46.7559 30.0605 46.7148 30.209 46.7148 30.3652C46.7148 30.4824 46.7344 30.5879 46.7734 30.6816C46.8164 30.7715 46.8906 30.8555 46.9961 30.9336C47.1016 31.0078 47.25 31.0781 47.4414 31.1445C47.6328 31.2109 47.877 31.2773 48.1738 31.3438C48.6934 31.4609 49.1211 31.6016 49.457 31.7656C49.793 31.9297 50.043 32.1309 50.207 32.3691C50.3711 32.6074 50.4531 32.8965 50.4531 33.2363C50.4531 33.5137 50.3945 33.7676 50.2773 33.998C50.1641 34.2285 49.998 34.4277 49.7793 34.5957C49.5645 34.7598 49.3066 34.8887 49.0059 34.9824C48.709 35.0723 48.375 35.1172 48.0039 35.1172C47.4453 35.1172 46.9727 35.0176 46.5859 34.8184C46.1992 34.6191 45.9062 34.3613 45.707 34.0449C45.5078 33.7285 45.4082 33.3945 45.4082 33.043H46.498C46.5137 33.3398 46.5996 33.5762 46.7559 33.752C46.9121 33.9238 47.1035 34.0469 47.3301 34.1211C47.5566 34.1914 47.7812 34.2266 48.0039 34.2266C48.3008 34.2266 48.5488 34.1875 48.748 34.1094C48.9512 34.0312 49.1055 33.9238 49.2109 33.7871C49.3164 33.6504 49.3691 33.4941 49.3691 33.3184ZM53.0547 28.6602V35H51.9648V28.6602H53.0547ZM51.8828 26.9785C51.8828 26.8027 51.9355 26.6543 52.041 26.5332C52.1504 26.4121 52.3105 26.3516 52.5215 26.3516C52.7285 26.3516 52.8867 26.4121 52.9961 26.5332C53.1094 26.6543 53.166 26.8027 53.166 26.9785C53.166 27.1465 53.1094 27.291 52.9961 27.4121C52.8867 27.5293 52.7285 27.5879 52.5215 27.5879C52.3105 27.5879 52.1504 27.5293 52.041 27.4121C51.9355 27.291 51.8828 27.1465 51.8828 26.9785ZM54.5078 31.9004V31.7656C54.5078 31.3086 54.5742 30.8848 54.707 30.4941C54.8398 30.0996 55.0312 29.7578 55.2812 29.4688C55.5312 29.1758 55.834 28.9492 56.1895 28.7891C56.5449 28.625 56.9434 28.543 57.3848 28.543C57.8301 28.543 58.2305 28.625 58.5859 28.7891C58.9453 28.9492 59.25 29.1758 59.5 29.4688C59.7539 29.7578 59.9473 30.0996 60.0801 30.4941C60.2129 30.8848 60.2793 31.3086 60.2793 31.7656V31.9004C60.2793 32.3574 60.2129 32.7812 60.0801 33.1719C59.9473 33.5625 59.7539 33.9043 59.5 34.1973C59.25 34.4863 58.9473 34.7129 58.5918 34.877C58.2402 35.0371 57.8418 35.1172 57.3965 35.1172C56.9512 35.1172 56.5508 35.0371 56.1953 34.877C55.8398 34.7129 55.5352 34.4863 55.2812 34.1973C55.0312 33.9043 54.8398 33.5625 54.707 33.1719C54.5742 32.7812 54.5078 32.3574 54.5078 31.9004ZM55.5918 31.7656V31.9004C55.5918 32.2168 55.6289 32.5156 55.7031 32.7969C55.7773 33.0742 55.8887 33.3203 56.0371 33.5352C56.1895 33.75 56.3789 33.9199 56.6055 34.0449C56.832 34.166 57.0957 34.2266 57.3965 34.2266C57.6934 34.2266 57.9531 34.166 58.1758 34.0449C58.4023 33.9199 58.5898 33.75 58.7383 33.5352C58.8867 33.3203 58.998 33.0742 59.0723 32.7969C59.1504 32.5156 59.1895 32.2168 59.1895 31.9004V31.7656C59.1895 31.4531 59.1504 31.1582 59.0723 30.8809C58.998 30.5996 58.8848 30.3516 58.7324 30.1367C58.584 29.918 58.3965 29.7461 58.1699 29.6211C57.9473 29.4961 57.6855 29.4336 57.3848 29.4336C57.0879 29.4336 56.8262 29.4961 56.5996 29.6211C56.377 29.7461 56.1895 29.918 56.0371 30.1367C55.8887 30.3516 55.7773 30.5996 55.7031 30.8809C55.6289 31.1582 55.5918 31.4531 55.5918 31.7656ZM62.7227 30.0137V35H61.6387V28.6602H62.6641L62.7227 30.0137ZM62.4648 31.5898L62.0137 31.5723C62.0176 31.1387 62.082 30.7383 62.207 30.3711C62.332 30 62.5078 29.6777 62.7344 29.4043C62.9609 29.1309 63.2305 28.9199 63.543 28.7715C63.8594 28.6191 64.209 28.543 64.5918 28.543C64.9043 28.543 65.1855 28.5859 65.4355 28.6719C65.6855 28.7539 65.8984 28.8867 66.0742 29.0703C66.2539 29.2539 66.3906 29.4922 66.4844 29.7852C66.5781 30.0742 66.625 30.4277 66.625 30.8457V35H65.5352V30.834C65.5352 30.502 65.4863 30.2363 65.3887 30.0371C65.291 29.834 65.1484 29.6875 64.9609 29.5977C64.7734 29.5039 64.543 29.457 64.2695 29.457C64 29.457 63.7539 29.5137 63.5312 29.627C63.3125 29.7402 63.123 29.8965 62.9629 30.0957C62.8066 30.2949 62.6836 30.5234 62.5938 30.7812C62.5078 31.0352 62.4648 31.3047 62.4648 31.5898ZM76.8965 32.1289V33.0195H70.7324V32.3809L74.5527 26.4688H75.4375L74.4883 28.1797L71.9629 32.1289H76.8965ZM75.707 26.4688V35H74.623V26.4688H75.707ZM78.0156 34.4258C78.0156 34.2422 78.0723 34.0879 78.1855 33.9629C78.3027 33.834 78.4707 33.7695 78.6895 33.7695C78.9082 33.7695 79.0742 33.834 79.1875 33.9629C79.3047 34.0879 79.3633 34.2422 79.3633 34.4258C79.3633 34.6055 79.3047 34.7578 79.1875 34.8828C79.0742 35.0078 78.9082 35.0703 78.6895 35.0703C78.4707 35.0703 78.3027 35.0078 78.1855 34.8828C78.0723 34.7578 78.0156 34.6055 78.0156 34.4258ZM86.4004 30.0547V31.3555C86.4004 32.0547 86.3379 32.6445 86.2129 33.125C86.0879 33.6055 85.9082 33.9922 85.6738 34.2852C85.4395 34.5781 85.1562 34.791 84.8242 34.9238C84.4961 35.0527 84.125 35.1172 83.7109 35.1172C83.3828 35.1172 83.0801 35.0762 82.8027 34.9941C82.5254 34.9121 82.2754 34.7812 82.0527 34.6016C81.834 34.418 81.6465 34.1797 81.4902 33.8867C81.334 33.5938 81.2148 33.2383 81.1328 32.8203C81.0508 32.4023 81.0098 31.9141 81.0098 31.3555V30.0547C81.0098 29.3555 81.0723 28.7695 81.1973 28.2969C81.3262 27.8242 81.5078 27.4453 81.7422 27.1602C81.9766 26.8711 82.2578 26.6641 82.5859 26.5391C82.918 26.4141 83.2891 26.3516 83.6992 26.3516C84.0312 26.3516 84.3359 26.3926 84.6133 26.4746C84.8945 26.5527 85.1445 26.6797 85.3633 26.8555C85.582 27.0273 85.7676 27.2578 85.9199 27.5469C86.0762 27.832 86.1953 28.1816 86.2773 28.5957C86.3594 29.0098 86.4004 29.4961 86.4004 30.0547ZM85.3105 31.5312V29.873C85.3105 29.4902 85.2871 29.1543 85.2402 28.8652C85.1973 28.5723 85.1328 28.3223 85.0469 28.1152C84.9609 27.9082 84.8516 27.7402 84.7188 27.6113C84.5898 27.4824 84.4395 27.3887 84.2676 27.3301C84.0996 27.2676 83.9102 27.2363 83.6992 27.2363C83.4414 27.2363 83.2129 27.2852 83.0137 27.3828C82.8145 27.4766 82.6465 27.627 82.5098 27.834C82.377 28.041 82.2754 28.3125 82.2051 28.6484C82.1348 28.9844 82.0996 29.3926 82.0996 29.873V31.5312C82.0996 31.9141 82.1211 32.252 82.1641 32.5449C82.2109 32.8379 82.2793 33.0918 82.3691 33.3066C82.459 33.5176 82.5684 33.6914 82.6973 33.8281C82.8262 33.9648 82.9746 34.0664 83.1426 34.1328C83.3145 34.1953 83.5039 34.2266 83.7109 34.2266C83.9766 34.2266 84.209 34.1758 84.4082 34.0742C84.6074 33.9727 84.7734 33.8145 84.9062 33.5996C85.043 33.3809 85.1445 33.1016 85.2109 32.7617C85.2773 32.418 85.3105 32.0078 85.3105 31.5312ZM87.9297 34.4258C87.9297 34.2422 87.9863 34.0879 88.0996 33.9629C88.2168 33.834 88.3848 33.7695 88.6035 33.7695C88.8223 33.7695 88.9883 33.834 89.1016 33.9629C89.2188 34.0879 89.2773 34.2422 89.2773 34.4258C89.2773 34.6055 89.2188 34.7578 89.1016 34.8828C88.9883 35.0078 88.8223 35.0703 88.6035 35.0703C88.3848 35.0703 88.2168 35.0078 88.0996 34.8828C87.9863 34.7578 87.9297 34.6055 87.9297 34.4258ZM92.3301 30.9395L91.4629 30.7168L91.8906 26.4688H96.2676V27.4707H92.8105L92.5527 29.791C92.709 29.7012 92.9062 29.6172 93.1445 29.5391C93.3867 29.4609 93.6641 29.4219 93.9766 29.4219C94.3711 29.4219 94.7246 29.4902 95.0371 29.627C95.3496 29.7598 95.6152 29.9512 95.834 30.2012C96.0566 30.4512 96.2266 30.752 96.3438 31.1035C96.4609 31.4551 96.5195 31.8477 96.5195 32.2812C96.5195 32.6914 96.4629 33.0684 96.3496 33.4121C96.2402 33.7559 96.0742 34.0566 95.8516 34.3145C95.6289 34.5684 95.3477 34.7656 95.0078 34.9062C94.6719 35.0469 94.2754 35.1172 93.8184 35.1172C93.4746 35.1172 93.1484 35.0703 92.8398 34.9766C92.5352 34.8789 92.2617 34.7324 92.0195 34.5371C91.7812 34.3379 91.5859 34.0918 91.4336 33.7988C91.2852 33.502 91.1914 33.1543 91.1523 32.7559H92.1836C92.2305 33.0762 92.3242 33.3457 92.4648 33.5645C92.6055 33.7832 92.7891 33.9492 93.0156 34.0625C93.2461 34.1719 93.5137 34.2266 93.8184 34.2266C94.0762 34.2266 94.3047 34.1816 94.5039 34.0918C94.7031 34.002 94.8711 33.873 95.0078 33.7051C95.1445 33.5371 95.248 33.334 95.3184 33.0957C95.3926 32.8574 95.4297 32.5898 95.4297 32.293C95.4297 32.0234 95.3926 31.7734 95.3184 31.543C95.2441 31.3125 95.1328 31.1113 94.9844 30.9395C94.8398 30.7676 94.6621 30.6348 94.4512 30.541C94.2402 30.4434 93.998 30.3945 93.7246 30.3945C93.3613 30.3945 93.0859 30.4434 92.8984 30.541C92.7148 30.6387 92.5254 30.7715 92.3301 30.9395Z" fill="#B0BEC5"/>
</svg>
